#tb 0: 1/15
0,          0,          0,        1,    28800, 0xe41c0ee2
0,          1,          1,        1,    28800, 0x08054520
0,          2,          2,        1,    28800, 0x272b3ed7
0,          3,          3,        1,    28800, 0x456551d0
0,          4,          4,        1,    28800, 0x4f96457f
0,          5,          5,        1,    28800, 0x4e78568a
0,          6,          6,        1,    28800, 0xe79151f3
0,          7,          7,        1,    28800, 0x6d7350d8
0,          8,          8,        1,    28800, 0x397250b2
0,          9,          9,        1,    28800, 0x518750ae
0,         10,         10,        1,    28800, 0x4bfa4aa2
0,         11,         11,        1,    28800, 0x085a5490
0,         12,         12,        1,    28800, 0x7da56e74
0,         13,         13,        1,    28800, 0xfdd08146
0,         14,         14,        1,    28800, 0x99c295bd
0,         15,         15,        1,    28800, 0xc8bc88f2
0,         16,         16,        1,    28800, 0x986eaa72
0,         17,         17,        1,    28800, 0xa3f9aa6f
0,         18,         18,        1,    28800, 0xc1b4bed4
0,         19,         19,        1,    28800, 0xf9a767bb
0,         20,         20,        1,    28800, 0x72e6b420
0,         21,         21,        1,    28800, 0x30e7eabd
0,         22,         22,        1,    28800, 0xca100206
0,         23,         23,        1,    28800, 0xe433f7b9
0,         24,         24,        1,    28800, 0x1f70f4f2
0,         25,         25,        1,    28800, 0x2e58f182
0,         26,         26,        1,    28800, 0x4514cca8
0,         27,         27,        1,    28800, 0xc0e1e144
0,         28,         28,        1,    28800, 0x1a79e36a
0,         29,         29,        1,    28800, 0x0729de0b
0,         30,         30,        1,    28800, 0xd61ccbb1
0,         31,         31,        1,    28800, 0x877aa65d
0,         32,         32,        1,    28800, 0x7cabbc37
0,         33,         33,        1,    28800, 0x6591b87c
0,         34,         34,        1,    28800, 0x097dd8bc
0,         35,         35,        1,    28800, 0xa4549f78
0,         36,         36,        1,    28800, 0x109f91ef
0,         37,         37,        1,    28800, 0x96a2c41b
0,         38,         38,        1,    28800, 0x3b71e985
0,         39,         39,        1,    28800, 0xbb76ff57
0,         40,         40,        1,    28800, 0x26701ae1
0,         41,         41,        1,    28800, 0x9da03e9b
0,         42,         42,        1,    28800, 0x58fc3d9a
0,         43,         43,        1,    28800, 0x67947735
0,         44,         44,        1,    28800, 0x3961cea4
0,         45,         45,        1,    28800, 0x68fe0f3a
0,         46,         46,        1,    28800, 0x6623d61f
0,         47,         47,        1,    28800, 0x7df2c4ff
0,         48,         48,        1,    28800, 0xe9b9eaa6
0,         49,         49,        1,    28800, 0xeec8c115
0,         50,         50,        1,    28800, 0xbfd96ba4
0,         51,         51,        1,    28800, 0x4d6dff71
0,         52,         52,        1,    28800, 0x3ffbd6fe
0,         53,         53,        1,    28800, 0x7aa5e42e
0,         54,         54,        1,    28800, 0x4d05cf80
0,         55,         55,        1,    28800, 0x9fb3b152
0,         56,         56,        1,    28800, 0xc62b05b2
0,         57,         57,        1,    28800, 0x82a2e7dd
0,         58,         58,        1,    28800, 0x4611b76f
0,         59,         59,        1,    28800, 0xc7f5acee
0,         60,         60,        1,    28800, 0x19149cc8
0,         61,         61,        1,    28800, 0xe97d5933
0,         62,         62,        1,    28800, 0x92960b73
0,         63,         63,        1,    28800, 0x2369d90f
0,         64,         64,        1,    28800, 0x1d58d518
0,         65,         65,        1,    28800, 0x2b29b6ee
0,         66,         66,        1,    28800, 0xbfbb8b66
0,         67,         67,        1,    28800, 0x6bf759d4
0,         68,         68,        1,    28800, 0x8ccf3a60
0,         69,         69,        1,    28800, 0x4b1b4623
0,         70,         70,        1,    28800, 0xc1da9fc6
0,         71,         71,        1,    28800, 0xb9bc1eed
0,         72,         72,        1,    28800, 0x50f7d1eb
0,         73,         73,        1,    28800, 0xf8c53f59
0,         74,         74,        1,    28800, 0x950e3515
0,         75,         75,        1,    28800, 0xe5dff457
0,         76,         76,        1,    28800, 0x2dc3ad6a
0,         77,         77,        1,    28800, 0x0559b63c
0,         78,         78,        1,    28800, 0xa475bf46
0,         79,         79,        1,    28800, 0x7861bbcf
0,         80,         80,        1,    28800, 0x3e4ac44c
0,         81,         81,        1,    28800, 0xfb5b99a0
0,         82,         82,        1,    28800, 0x99299648
0,         83,         83,        1,    28800, 0x384d48ac
0,         84,         84,        1,    28800, 0xf17e18f7
0,         85,         85,        1,    28800, 0xa9e00e3f
0,         86,         86,        1,    28800, 0x5d110bb3
0,         87,         87,        1,    28800, 0x337d3e31
0,         88,         88,        1,    28800, 0xfea3737b
0,         89,         89,        1,    28800, 0xce7d6020
